<svg id="Layer_1" data-name="Layer 1" xmlns="http://www.w3.org/2000/svg" xmlns:xlink="http://www.w3.org/1999/xlink" viewBox="0 0 500 500"><defs><style>.cls-1{fill:none;}.cls-2{fill:#dddcdc;}.cls-3{fill:#828084;}.cls-4{fill:#fff;}.cls-5{fill:#a5a4a4;}.cls-6{fill:#cacaca;}.cls-7{fill:#8b644b;}.cls-8{fill:#613f1f;}.cls-9{fill:#80543d;}.cls-10{fill:#bc8e66;}.cls-11{fill:#a7744d;}.cls-12{clip-path:url(#clip-path);}.cls-13{clip-path:url(#clip-path-2);}.cls-14{fill:#cba988;}</style><clipPath id="clip-path"><path class="cls-1" d="M307.46,226.66c-1.93-9.19-10.33-49.42-25.82-27.29s-21.39,50.15-39.09,61.22-31,23.6-35.4,35.4c0,0,5.16-27.29-7.38-46.47s-19.91-49.41-18.43-67.11S183.55,149.22,160,164,112,206,123.81,247.31,186.5,312.22,196.09,341a368.55,368.55,0,0,1,47.2-17C271.32,315.9,320,286.41,307.46,226.66Z"/></clipPath><clipPath id="clip-path-2"><path class="cls-1" d="M214.53,274.6s5.9-13.28,18.43-22.13,31.72-28.76,33.93-52.36c0,0-8.85,14-19.17,17-7.18,2.05-15,3.81-20.13,8.11,1.66-5.09,4.61-11.4,9.8-16.22,10.33-9.59,28.76-30.24,20.65-33.93-5.82-2.65-15,1.61-20.85,9.09,1.5-5.37,3.52-10.81,6.1-14.25,6.64-8.85,25.81-24.34,21.39-38.35s-11.8-8.12-15.49-.74c0,0,2.21-18.44-9.59-16.23s-11.8,16.23-8.85,31.72c2.61,13.66,5.2,33.63,2.74,44.22a22.94,22.94,0,0,0-1.26,3.72s5.9-25.08-5.17-32.46-20.65,2.22-13.27,23.61,9.59,31,8.85,47.2c0,0-1.48-15.49-9.59-25.08s-15.49-13.27-16.23-31.71c0,0-10.32,17.7-2.21,42S214.53,255.42,214.53,274.6Z"/></clipPath></defs><title>Coffee</title><circle class="cls-2" cx="250.25" cy="284.31" r="194.1"/><path class="cls-3" d="M250.25,90.21c107.2,0,194.1,86.9,194.1,194.1s-86.9,194.1-194.1,194.1-194.1-86.9-194.1-194.1,86.9-194.1,194.1-194.1m0-5.9c-110.28,0-200,89.72-200,200s89.72,200,200,200,200-89.72,200-200-89.72-200-200-200Z"/><path class="cls-4" d="M250.25,463.66c-104.72,0-190-83-193.91-186.72-.09,2.45-.19,4.9-.19,7.37,0,107.2,86.9,194.1,194.1,194.1s194.1-86.9,194.1-194.1c0-2.47-.09-4.92-.19-7.37C440.28,380.71,355,463.66,250.25,463.66Z"/><circle class="cls-5" cx="250.25" cy="278.78" r="159.8"/><path class="cls-4" d="M303,92.42s7.38-47.2,29.5-62.69,118-7.37,41.31,178.49l-15.49-43.51s21.39-54.58,14.75-78.19-28-27.29-36.88,36.88Z"/><path class="cls-3" d="M352.55,24.5c33.43,0,82.74,34.83,21.29,183.72l-15.49-43.51s21.39-54.58,14.75-78.19c-2.66-9.44-7.67-15.69-13.3-15.69-8.44,0-18.27,14.07-23.58,52.57L303,92.42s7.38-47.2,29.5-62.69c4.41-3.08,11.73-5.23,20-5.23m0-5.9c-9.15,0-17.68,2.3-23.4,6.3-23.91,16.74-31.63,64.59-31.95,66.61l-.48,3.09L299,96.74l33.19,31,8.31,7.76,1.56-11.27c5.34-38.76,14.83-47.48,17.73-47.48,1.83,0,5.41,3.53,7.62,11.39,5,17.8-8.82,59.76-14.56,74.43l-.81,2.06.74,2.07,15.49,43.52,5.15,14.47,5.86-14.2c40.95-99.21,31.93-146.35,17.17-168.42A52.06,52.06,0,0,0,352.55,18.6Z"/><path class="cls-6" d="M362.77,55.55c-21.39,8.11-27.29,51.63-27.29,51.63s-10.08-2.26-22.1-5.1l22.84,21.32c8.85-64.17,30.24-60.48,36.88-36.88s-14.75,78.19-14.75,78.19l8.73,24.52c1.7-4.92,3.68-10.34,6-16.41C407.76,82.84,384.16,47.43,362.77,55.55Z"/><path class="cls-4" d="M380,224.19c-7.32-86.08-70.38-156.35-156.84-156.35A156.85,156.85,0,0,0,66.28,224.69c0,21.15,5.69,40.76,11.79,59.71,25.58,79.44,106.15,132.25,189,116.89C351.18,385.7,387.18,309,380,224.19Z"/><path class="cls-3" d="M223.13,67.84c86.46,0,149.52,70.27,156.84,156.35,7.21,84.81-28.79,161.51-112.88,177.1A158.63,158.63,0,0,1,238.23,404c-72.08,0-137.57-49.39-160.16-119.55-6.1-18.95-11.79-38.56-11.79-59.71A156.85,156.85,0,0,1,223.13,67.84m0-5.9c-89.74,0-162.75,73-162.75,162.75,0,22.15,6,42.54,12.08,61.52,23.43,72.8,91.6,123.64,165.77,123.64a164.61,164.61,0,0,0,29.93-2.76c79.71-14.77,125.91-86.76,117.69-183.4-8-93.72-76.4-161.75-162.72-161.75Z"/><path class="cls-6" d="M262,381.38C201.7,391.74,142.57,371,102,332c36.78,51.56,100.21,81.29,165.06,69.27C335.4,388.63,372,335.63,379.43,270.72,366.34,326.34,327.88,370,262,381.38Z"/><path class="cls-3" d="M219.78,388.81c-85.55,0-131.1-66.07-131.61-66.84a2.95,2.95,0,0,1,4.89-3.29c.57.84,57.75,83.59,164.35,60a2.95,2.95,0,0,1,1.27,5.76A179.4,179.4,0,0,1,219.78,388.81Z"/><path class="cls-3" d="M276.48,380.81a3,3,0,0,1-.65-5.83,110.85,110.85,0,0,0,42.25-22.22,2.95,2.95,0,1,1,3.84,4.47,114.68,114.68,0,0,1-44.79,23.51A2.94,2.94,0,0,1,276.48,380.81Z"/><circle class="cls-7" cx="221.66" cy="223.22" r="132.76"/><path class="cls-8" d="M221.66,90.46A132.76,132.76,0,1,1,88.9,223.22,132.76,132.76,0,0,1,221.66,90.46m0-5.9C145.2,84.56,83,146.76,83,223.22s62.2,138.66,138.66,138.66,138.66-62.2,138.66-138.66S298.11,84.56,221.66,84.56Z"/><path class="cls-9" d="M224.61,344.18a132.85,132.85,0,0,1-130.17-159,132.77,132.77,0,1,0,257.38,64.19A132.81,132.81,0,0,1,224.61,344.18Z"/><path class="cls-9" d="M216.74,99.31A132.73,132.73,0,0,1,335,292.33,132.76,132.76,0,1,0,103.37,163,132.68,132.68,0,0,1,216.74,99.31Z"/><path class="cls-10" d="M307.46,226.66c-1.93-9.19-10.33-49.42-25.82-27.29s-21.39,50.15-39.09,61.22-31,23.6-35.4,35.4c0,0,5.16-27.29-7.38-46.47s-19.91-49.41-18.43-67.11S183.55,149.22,160,164,112,206,123.81,247.31,186.5,312.22,196.09,341a368.55,368.55,0,0,1,47.2-17C271.32,315.9,320,286.41,307.46,226.66Z"/><path class="cls-10" d="M214.53,274.6s5.9-13.28,18.43-22.13,31.72-28.76,33.93-52.36c0,0-8.85,14-19.17,17-7.18,2.05-15,3.81-20.13,8.11,1.66-5.09,4.61-11.4,9.8-16.22,10.33-9.59,28.76-30.24,20.65-33.93-5.82-2.65-15,1.61-20.85,9.09,1.5-5.37,3.52-10.81,6.1-14.25,6.64-8.85,25.81-24.34,21.39-38.35s-11.8-8.12-15.49-.74c0,0,2.21-18.44-9.59-16.23s-11.8,16.23-8.85,31.72c2.61,13.66,5.2,33.63,2.74,44.22a22.94,22.94,0,0,0-1.26,3.72s5.9-25.08-5.17-32.46-20.65,2.22-13.27,23.61,9.59,31,8.85,47.2c0,0-1.48-15.49-9.59-25.08s-15.49-13.27-16.23-31.71c0,0-10.32,17.7-2.21,42S214.53,255.42,214.53,274.6Z"/><path class="cls-10" d="M137.08,296c-1.43-1.44-2.75-2.9-4.07-4.35A40.19,40.19,0,0,0,137.08,296Z"/><path class="cls-10" d="M154.05,144.05c11.06-9.58,7.37-25.81-12.54-11.8C122,146,75.87,228.68,133,291.64c-6.89-8.35-20.08-29.13-19.53-65.72C114.22,176.51,143,153.64,154.05,144.05Z"/><path class="cls-10" d="M337.7,200.11c-9.59-46.47-28.77-60.48-33.19-51.63s16.22,3,25.81,67.85c10.25,69.35-43.51,102.52-43.51,102.52C320,307.79,347.29,246.57,337.7,200.11Z"/><path class="cls-11" d="M224.88,157c.73.11,1.39.15,2.18.31A8,8,0,0,0,224.88,157Z"/><path class="cls-11" d="M236.48,182.56a46.69,46.69,0,0,0-3,7.93S234.73,187.13,236.48,182.56Z"/><g class="cls-12"><path class="cls-11" d="M165.11,298.2c-21.39-22.12-36.14-45.73-34.67-76.7s35.41-65.65,58.27-49.42c0,0-.74-16.23-11.8-18.44s-63.43,25.82-59,74.49,29.5,66.38,39.09,77.45,35.4,26.55,39.09,35.4C196.09,341,186.5,320.33,165.11,298.2Z"/><path class="cls-11" d="M316.31,241.41c-7.38-56.79-33.19-70.07-39.09-33.19,0,0,5.9-14.75,15.49-5.16s15.49,71.54-21.39,93.67S199.77,327,196.09,345.41c0,0,5.9-7.38,36.14-16.23S323.68,298.2,316.31,241.41Z"/></g><g class="cls-13"><path class="cls-11" d="M235.91,240.67a87.1,87.1,0,0,0-17.7,22.13c-.73-12.54-11.06-33.93-18.44-47.94s-3-39.09-3-39.09c-14,11.8-10.32,42,0,60.48s15.49,42,15.49,42,11.07-8.85,16.23-16.23,4.42-1.47,19.91-19.17,18.44-42.78,18.44-42.78C261.73,217.81,247,231.09,235.91,240.67Z"/><path class="cls-11" d="M251.4,172.82c5.9,6.64-3.68,15.49-10.32,23.6s-14,19.18-14,19.18-6.63-26.56-8.85-44.26c-1.57-12.6,3.57-14.35,6.67-14.32-26.78-4-19,22.77-11.83,35,7.38,12.54,9.59,40.57,9.59,40.57s11.8-14.75,14-18.44,16.23-14,18.44-17,13.28-21.39,12.54-25.08S245.5,166.18,251.4,172.82Z"/><path class="cls-11" d="M233.49,190.49c2-8.13,2.42-39.8.95-48.65s.74-15.49,7.38-21.39,11.06,2.21,11.06,2.21c-1.48-24.33-24.34-23.6-31-14s-2.21,24.34,5.9,44.25S231.49,198.63,233.49,190.49Z"/><path class="cls-11" d="M257.3,133.73c-2.21,14-7.37,18.44-11.8,27.29-2.64,5.29-6.41,14.76-9,21.54,3-6.24,8.47-14.63,17.87-19.33,16.23-8.11,25.08-46.47,5.17-52.37l-6.64,11.8S259.52,119.71,257.3,133.73Z"/></g><path class="cls-14" d="M202,287.14a56.26,56.26,0,0,0-7.38-37.37c-11.31-19.18-16.72-23.11-17.21-35.4s-10.32-9.84-3.93,10.32S199.53,248.79,202,287.14Z"/><path class="cls-14" d="M195.6,330.41s-14.26-21.14-27.54-34.91S136.59,258.13,136.59,238s3.44-4.92,6.39,6.39,10.82,30.49,23.11,42.78S192.15,319.59,195.6,330.41Z"/><path class="cls-14" d="M213.3,321.07s13.76-12.79,28.52-19.67,30.48-17.21,33.43-25.57,8.85-5.9,2,5.9S229,306.81,213.3,321.07Z"/><path class="cls-14" d="M215.26,295.5A58.06,58.06,0,0,1,240.34,268c18.68-10.32,29-24.58,31.47-34.42s6.88-19.17,10.32-17.21-3.93,23.61-11.8,33.93-32.45,21.14-37.86,26.06S218.71,289.6,215.26,295.5Z"/><path class="cls-14" d="M221.16,236s-5.41-23.11-13.27-29.5-6.39,1-1.48,9.34,12.79,28,12.79,37.86A31,31,0,0,1,228.54,239l7.37-6.39s17.71-10.82,13.28-12.29S228.05,225.68,221.16,236Z"/><path class="cls-14" d="M231,196.67s2.46-26.06-3.94-30.49-1.47,23.11,2,39.34c0,0,1.48-3.94,6.39-8.36s14.75-16.72,11.31-16.72S234,191.26,231,196.67Z"/><path class="cls-14" d="M244.27,144.55s2.46-16.72-2-16.72-2.46,16.22-4.43,41.3a86.55,86.55,0,0,1,8.85-17.7C252.14,143.56,253.62,131.27,244.27,144.55Z"/></svg>