<svg id="Layer_1" data-name="Layer 1" xmlns="http://www.w3.org/2000/svg" viewBox="0 0 113.32 93.5">
  <title>Artboard 10</title>
  <g>
    <path d="M8.56,63.7c0,13.6,8.3,29.8,48.1,29.8,39.7,0,48.1-16.2,48.1-29.8a63.251,63.251,0,0,0-5-24.3c9.3-16,8.9-25.3,8.8-26.3l-.1-1a2.883,2.883,0,0,0-2.5-2.7l-.9-.2a69.034,69.034,0,0,0-10-.7c-6.4,0-15.2.9-22.2,5.2a44.5,44.5,0,0,0-10.5-2.2,1.268,1.268,0,0,0-.6-.1c-1.4-.1-2.7-.2-4.1-.2h-1.1a50.242,50.242,0,0,0-14.2,1.9C31.76,3.7,14.66.4,13.86.3L12.66.1c-.2,0-.4-.1-.6-.1a3.371,3.371,0,0,0-1.7.5,2.836,2.836,0,0,0-1.2,2l-.2,1.3C8.66,5.4,6.56,20,15.26,36A60.887,60.887,0,0,0,8.56,63.7Z" fill="#2d2413"/>
    <g>
      <path d="M56.56,90.5c-29.5,0-45.1-9.3-45.1-26.8a58.884,58.884,0,0,1,7.1-27.8,50.909,50.909,0,0,1-6.8-31.6l.2-1.3,1.2.2c.8.1,18.5,3.6,28.3,13.2a48.124,48.124,0,0,1,15-2.3A47.06,47.06,0,0,1,73.06,17c6.4-4.5,15.3-5.5,21.8-5.5a66.059,66.059,0,0,1,9.5.7l1,.2.1,1c0,.4.7,9.6-9.2,25.9a58.425,58.425,0,0,1,5.4,24.5C101.66,81.2,86.06,90.5,56.56,90.5Z" fill="#a7a9ac"/>
      <g>
        <circle cx="77.46" cy="54.4" r="7" fill="#231f20"/>
        <circle cx="79.36" cy="52.9" r="3.3" fill="#fff"/>
      </g>
      <g>
        <circle cx="39.46" cy="54.4" r="7" fill="#231f20"/>
        <circle cx="41.36" cy="52.9" r="3.3" fill="#fff"/>
      </g>
      <path d="M72.86,76.1c0,6.2-6.4,8.2-14.4,8.2-7.9,0-14.4-2-14.4-8.2s6.4-14.3,14.4-14.3C66.36,61.8,72.86,69.9,72.86,76.1Z" fill="#fff"/>
      <path d="M62.36,66.7c0,2.2-3.9,3.9-3.9,3.9s-3.9-1.8-3.9-3.9C54.56,64.5,62.36,64.5,62.36,66.7Z" fill="#231f20"/>
      <path d="M54.86,79.4l-2.8-4a.86.86,0,1,1,1.4-1l2.2,3.1,8.4-1.1a.906.906,0,1,1,.2,1.8Z" fill="#231f20"/>
      <g>
        <path d="M112.86,64.5a.367.367,0,0,1-.3-.1c-6.6-3.8-14.2-2.4-14.3-2.4a.51.51,0,0,1-.2-1,23.488,23.488,0,0,1,15,2.5c.3.1.3.5.2.7C113.26,64.4,113.06,64.5,112.86,64.5Z" fill="#231f20"/>
        <path d="M109.56,71a.758.758,0,0,1-.4-.2c-4.2-4.5-12.4-5.2-12.5-5.2a.552.552,0,0,1,.1-1.1c.4,0,8.7.7,13.2,5.5a.483.483,0,0,1,0,.7C109.76,71,109.66,71,109.56,71Z" fill="#231f20"/>
        <path d="M105.56,77.8a.55.55,0,0,1-.5-.3c-3.2-5.6-10-6.7-10.1-6.7a.51.51,0,1,1,.2-1c.3,0,7.4,1.1,10.8,7.2.1.3.1.6-.2.7C105.76,77.8,105.66,77.8,105.56,77.8Z" fill="#231f20"/>
      </g>
      <g>
        <path d="M.56,64.5a.55.55,0,0,1-.5-.3c-.1-.3-.1-.6.2-.7a23.488,23.488,0,0,1,15-2.5c.3.1.5.3.4.6s-.3.5-.6.4c-.1,0-7.7-1.4-14.3,2.4C.76,64.5.66,64.5.56,64.5Z" fill="#231f20"/>
        <path d="M3.86,71a.6.6,0,0,1-.4-.1.483.483,0,0,1,0-.7c4.5-4.8,12.8-5.5,13.2-5.5a.552.552,0,0,1,.1,1.1c-.1,0-8.3.7-12.5,5.2Z" fill="#231f20"/>
        <path d="M7.86,77.8a.367.367,0,0,1-.3-.1c-.3-.1-.3-.5-.2-.7,3.5-6.1,10.5-7.2,10.8-7.2s.6.2.6.4c0,.3-.2.6-.4.6-.1,0-6.9,1.1-10.1,6.7C8.26,77.7,8.06,77.8,7.86,77.8Z" fill="#231f20"/>
      </g>
      <g>
        <path d="M52.36,30.2s-.5-10.4-2.4-15.3a32.476,32.476,0,0,0-8.1,3.1C44.86,20.5,50.16,25.2,52.36,30.2Z" fill="#bbbdbf"/>
        <path d="M73.16,17.9a29.187,29.187,0,0,0-8.3-3.1c-2,4.9-2.4,15.4-2.4,15.4C64.66,25.1,70.16,20.3,73.16,17.9Z" fill="#bbbdbf"/>
        <path d="M61.46,14.3c-1.2-.1-2.5-.2-3.8-.2-1.5,0-2.9.1-4.2.2,2.6,5.4,4,16.7,4,16.7S58.86,19.8,61.46,14.3Z" fill="#bbbdbf"/>
      </g>
      <path d="M35.46,20.1c-5.9-6.4-17.9-8.7-17.9-8.7s-.7,11.8,5.1,20.9A31.678,31.678,0,0,1,35.46,20.1Z" fill="#fff"/>
      <path d="M79.06,21.9c7.1-7.8,20.5-4.2,20.5-4.2s-.6,8.1-6.4,18.2A40.764,40.764,0,0,0,79.06,21.9Z" fill="#fff"/>
      <path d="M88.06,70.8c-1,3.2-15.9-1.5-14.9-4.6,1-3.2,5.1-4.7,9.2-3.4C86.56,64,89.06,67.7,88.06,70.8Z" fill="#ef528b"/>
      <path d="M29.16,70.8c1,3.2,15.9-1.5,14.9-4.6-1-3.2-5.1-4.7-9.2-3.4C30.66,64,28.16,67.7,29.16,70.8Z" fill="#ef528b"/>
      <path d="M21.76,15.8h1.5c.2,0,.6.1.9.1.3.1.6.1,1,.2a13.893,13.893,0,0,1,1.9.6,15.721,15.721,0,0,1,4.1,2.8c.1.1.1.2,0,.2-.1.1-.2.1-.2,0,0,0-.5-.3-1.3-.7a11.789,11.789,0,0,0-3-.9c-.6,0-1.1-.1-1.6-.1a1.268,1.268,0,0,0-.6.1,1.486,1.486,0,0,0-.6.1,13.072,13.072,0,0,1-1.4.4,1.456,1.456,0,0,1-.8-2.8Z" fill="#231f20"/>
      <path d="M91.86,22.2s-.5-.3-1.3-.8c-.2-.2-.3-.1-.5-.2a1.421,1.421,0,0,0-.6-.2,6.518,6.518,0,0,0-1.6-.3,11.2,11.2,0,0,0-3.2.1,8.02,8.02,0,0,0-1.5.3c-.1,0-.2,0-.2-.1s0-.2.1-.2a15.27,15.27,0,0,1,4.7-1.6,12.752,12.752,0,0,1,1.9-.1c.3,0,.7.1,1,.1.3.1.7.1.9.2.9.3,1.4.5,1.4.5a1.423,1.423,0,1,1-.9,2.7C92.06,22.3,91.96,22.2,91.86,22.2Z" fill="#231f20"/>
      <path d="M43.26,37.8s-.8-.1-1.9-.2a.821.821,0,0,0-.7.1c-.3,0-.5.1-.8.1a2.92,2.92,0,0,0-.9.2l-1,.3c-.6.3-1.3.6-1.9.9-.6.4-1.2.7-1.6,1-.9.6-1.5,1.1-1.5,1.1a.212.212,0,0,1-.3-.3,10.662,10.662,0,0,1,1.2-1.6,17.907,17.907,0,0,1,1.4-1.5c.5-.5,1.2-1,1.8-1.5l1-.7a5.973,5.973,0,0,1,1.1-.6,5.637,5.637,0,0,1,1.2-.4,9.252,9.252,0,0,1,1-.3c1.1-.2,1.9-.3,1.9-.3a1.825,1.825,0,0,1,.6,3.6A1.76,1.76,0,0,1,43.26,37.8Z" fill="#6e6f71"/>
      <path d="M77.96,36.6s-.8.1-1.9.2a1.854,1.854,0,0,0-.7.2,6.89,6.89,0,0,1-.8.3c-.3.1-.6.3-.9.4l-.9.5a10.916,10.916,0,0,0-1.7,1.3c-.5.5-1,.9-1.4,1.3a10.336,10.336,0,0,0-1.2,1.4.224.224,0,1,1-.4-.2s.3-.7.8-1.8c.3-.5.6-1.1,1-1.7s.9-1.2,1.4-1.9l.9-.9a3.45,3.45,0,0,1,.9-.8,8.65,8.65,0,0,0,1-.7,2.355,2.355,0,0,1,1-.5c1.1-.4,1.8-.7,1.8-.7a1.838,1.838,0,1,1,1.4,3.4C78.26,36.6,78.16,36.6,77.96,36.6Z" fill="#6e6f71"/>
    </g>
  </g>
</svg>
